<?xml version="1.0" encoding="UTF-8"?>
<svg width="30px" height="30px" viewBox="0 0 30 30" version="1.1" xmlns="http://www.w3.org/2000/svg" xmlns:xlink="http://www.w3.org/1999/xlink">
    <!-- Generator: Sketch 55.2 (78181) - https://sketchapp.com -->
    <title>twitter-logo-button</title>
    <desc>Created with Sketch.</desc>
    <g id="TailwindComponents" stroke="none" stroke-width="1" fill="none" fill-rule="evenodd">
        <g id="HOME" transform="translate(-161.000000, -2581.000000)" fill="#FFFFFF" fill-rule="nonzero">
            <g id="FOOTER" transform="translate(-174.000000, 2178.000000)">
                <g id="twitter-logo-button" transform="translate(335.000000, 403.000000)">
                    <path d="M15,0 C6.72903408,0 0,6.72903408 0,15 C0,23.2703617 6.72903408,30 15,30 C23.2703617,30 30,23.2703617 30,15 C30,6.72903408 23.2715701,0 15,0 Z M21.6915734,11.5669057 C21.6982196,11.7155402 21.7018448,11.8653831 21.7018448,12.015226 C21.7018448,16.57758 18.2300814,21.8365826 11.8780714,21.8365826 C9.92830097,21.8365826 8.11326835,21.266817 6.58583743,20.2867961 C6.85591718,20.318819 7.13083058,20.3351325 7.40936921,20.3351325 C9.02743092,20.3351325 10.5155885,19.7828889 11.697414,18.8572464 C10.1869008,18.829453 8.91142351,17.8313059 8.47216628,16.4591557 C8.68242971,16.4990333 8.8993394,16.5213889 9.12108274,16.5213889 C9.43587368,16.5213889 9.74160155,16.4803029 10.0310159,16.401152 C8.4516233,16.0845485 7.26194312,14.6894385 7.26194312,13.0157899 C7.26194312,13.001289 7.26194312,12.9861838 7.26254733,12.9722871 C7.72778539,13.2302828 8.26009023,13.3861677 8.82562636,13.4036897 C7.89998389,12.7855877 7.29034077,11.7282285 7.29034077,10.5306936 C7.29034077,9.89748651 7.46012245,9.30415693 7.75739144,8.79420769 C9.45943769,10.8835495 12.0043503,12.2575123 14.8731169,12.4025215 C14.8139048,12.1493595 14.7842987,11.8865303 14.7842987,11.6152421 C14.7842987,9.70897446 16.3298558,8.16281318 18.2361234,8.16281318 C19.2294369,8.16281318 20.1254733,8.58213164 20.7562636,9.25279948 C21.5435431,9.09812294 22.2806735,8.81172964 22.9495287,8.41476678 C22.6897205,9.22138081 22.1441231,9.89748651 21.4293483,10.3252638 C22.1284138,10.2418835 22.7954564,10.0569967 23.41235,9.7820833 C22.9519455,10.4732941 22.3664706,11.0817288 21.6915734,11.5669057 Z" id="Shape"></path>
                </g>
            </g>
        </g>
    </g>
</svg>